<svg xmlns="http://www.w3.org/2000/svg"
	 x="40"
	 y="60"
	 width="10px"
	 height="10px"
	 viewBox="0 0 10 10">
	<g transform="scale(0.01953125)" stroke-width="5px" stroke="black">
		<path d="M211.265,389.248l-60.331,60.331c-25.012,25.012-65.517,25.012-90.508,0.005c-24.996-24.996-24.996-65.505-0.005-90.496
					l120.683-120.683c24.991-24.992,65.5-24.992,90.491,0c8.331,8.331,21.839,8.331,30.17,0c8.331-8.331,8.331-21.839,0-30.17
					c-41.654-41.654-109.177-41.654-150.831,0L30.252,328.918c-41.654,41.654-41.654,109.177,0,150.831
					c41.649,41.676,109.177,41.676,150.853,0l60.331-60.331c8.331-8.331,8.331-21.839,0-30.17S219.596,380.917,211.265,389.248z"/>
		<path d="M479.756,181.08c41.654-41.654,41.654-109.177,0-150.831c-41.653-41.653-109.173-41.653-150.848-0.005l-72.389,72.389
					c-8.331,8.331-8.331,21.839,0,30.17s21.839,8.331,30.17,0l72.384-72.384c25.008-24.992,65.521-24.992,90.513,0
					c24.991,24.991,24.991,65.5,0,90.491L316.85,283.646c-24.992,24.992-65.5,24.992-90.491,0c-8.331-8.331-21.839-8.331-30.17,0
					s-8.331,21.839,0,30.17c41.654,41.654,109.177,41.654,150.831,0L479.756,181.08z"/>
	</g>
</svg>
